<svg width="57" height="52" viewBox="0 0 57 52" fill="none" xmlns="http://www.w3.org/2000/svg">
<path d="M28.5 0C12.7601 0 0 11.6408 0 26C0 40.3592 12.7601 52 28.5 52C44.2399 52 57 40.3592 57 26C56.9824 11.6475 44.2325 0.0160808 28.5 0ZM28.5 50.2667C13.8093 50.2667 1.9 39.402 1.9 26C1.9 12.598 13.8093 1.73333 28.5 1.73333C43.1907 1.73333 55.1 12.598 55.1 26C55.0833 39.3957 43.1837 50.2514 28.5 50.2667Z" fill="black"/>
<path d="M40.85 10.4H16.15C13.5277 10.403 11.4032 12.3411 11.4 14.7333V37.2667C11.4032 39.6589 13.5277 41.597 16.15 41.6H40.85C43.4722 41.597 45.5967 39.6589 45.6 37.2667V14.7333C45.5967 12.3411 43.4722 10.403 40.85 10.4ZM43.7 37.2667C43.7 38.7025 42.4239 39.8667 40.85 39.8667H16.15C14.5761 39.8667 13.3 38.7025 13.3 37.2667V14.7333C13.3 13.2975 14.5761 12.1333 16.15 12.1333H40.85C42.4239 12.1333 43.7 13.2975 43.7 14.7333V37.2667Z" fill="black"/>
<path d="M28.5 17.3333C23.2532 17.3333 19 21.2135 19 26C19 30.7866 23.2532 34.6667 28.5 34.6667C33.7468 34.6667 38 30.7866 38 26C37.9944 21.2156 33.7445 17.3384 28.5 17.3333ZM28.5 32.9333C24.3025 32.9333 20.9 29.8293 20.9 26C20.9 22.1707 24.3025 19.0667 28.5 19.0667C32.6975 19.0667 36.1 22.1707 36.1 26C36.0953 29.8272 32.6952 32.9291 28.5 32.9333Z" fill="black"/>
<path d="M38.95 13.8667C37.3761 13.8667 36.1 15.0308 36.1 16.4667C36.1 17.9025 37.3761 19.0667 38.95 19.0667C40.5239 19.0667 41.8 17.9025 41.8 16.4667C41.8 15.0308 40.5239 13.8667 38.95 13.8667ZM38.95 17.3333C38.4254 17.3333 38 16.9453 38 16.4667C38 15.9881 38.4254 15.6 38.95 15.6C39.4746 15.6 39.9 15.9881 39.9 16.4667C39.9 16.9453 39.4746 17.3333 38.95 17.3333Z" fill="black"/>
</svg>
