<svg width="44" height="39" viewBox="0 0 44 39" fill="none" xmlns="http://www.w3.org/2000/svg">
<path d="M0 5.52499V7.01414V31.9858V33.475H44V31.9858V7.01414V5.52499H0ZM26.8583 19.8666L22.8646 23.4234C22.3791 23.8231 21.6194 23.8225 21.1545 23.4403L17.1409 19.8666L17.1761 19.836L2.67447 6.82499H41.3351L26.8231 19.8367L26.8583 19.8666ZM15.0509 19.8464L1.46667 31.4307V7.74994L15.0509 19.8464ZM16.0849 20.7675L20.1351 24.3743C20.6551 24.804 21.3224 25.0198 21.9927 25.0198C22.6695 25.0198 23.3493 24.7994 23.8854 24.3568L27.9158 20.7675L41.2896 32.175H2.70307L16.0849 20.7675ZM28.9498 19.8471L42.5333 7.74929V31.4307L28.9498 19.8471Z" fill="black"/>
</svg>
