<svg width="34" height="38" viewBox="0 0 34 38" fill="none" xmlns="http://www.w3.org/2000/svg">
<path d="M16.8621 9.46971C16.0216 9.46971 15.1999 9.74829 14.5009 10.2702C13.802 10.7922 13.2573 11.534 12.9356 12.402C12.614 13.2699 12.5298 14.225 12.6938 15.1464C12.8578 16.0678 13.2625 16.9142 13.8569 17.5785C14.4513 18.2428 15.2086 18.6952 16.033 18.8784C16.8574 19.0617 17.7119 18.9677 18.4885 18.6081C19.2651 18.2486 19.9289 17.6398 20.3959 16.8587C20.8629 16.0775 21.1121 15.1592 21.1121 14.2197C21.1108 12.9604 20.6627 11.753 19.8659 10.8625C19.0692 9.97205 17.9889 9.47115 16.8621 9.46971ZM16.8621 16.5947C16.4418 16.5947 16.031 16.4554 15.6815 16.1945C15.3321 15.9335 15.0597 15.5626 14.8989 15.1286C14.738 14.6946 14.696 14.2171 14.778 13.7564C14.8599 13.2957 15.0623 12.8725 15.3595 12.5403C15.6567 12.2082 16.0353 11.982 16.4476 11.8903C16.8598 11.7987 17.287 11.8457 17.6753 12.0255C18.0636 12.2053 18.3955 12.5097 18.629 12.9002C18.8625 13.2908 18.9871 13.75 18.9871 14.2197C18.9865 14.8494 18.7624 15.453 18.364 15.8983C17.9656 16.3435 17.4255 16.594 16.8621 16.5947Z" fill="white"/>
<path d="M25.0289 5.0851C23.0097 2.82888 20.3142 1.48859 17.4628 1.32292C14.6114 1.15724 11.8061 2.17792 9.58847 4.18796C7.37079 6.198 5.8979 9.05491 5.45408 12.2073C5.01025 15.3597 5.62694 18.5841 7.18514 21.2582L15.2141 35.0341C15.3928 35.3407 15.6371 35.5925 15.9249 35.7669C16.2127 35.9412 16.5348 36.0325 16.8622 36.0325C17.1895 36.0325 17.5117 35.9412 17.7994 35.7669C18.0872 35.5925 18.3315 35.3407 18.5102 35.0341L26.5394 21.2582C27.9853 18.7776 28.6242 15.8169 28.3492 12.8724C28.0742 9.92787 26.9019 7.1785 25.0289 5.0851ZM24.759 19.9618L16.8622 33.5104L8.96536 19.9618C6.54817 15.8145 7.06661 10.2645 10.1981 6.76444C11.0732 5.78632 12.1121 5.01043 13.2556 4.48107C14.399 3.95172 15.6245 3.67926 16.8622 3.67926C18.0998 3.67926 19.3254 3.95172 20.4688 4.48107C21.6122 5.01043 22.6512 5.78632 23.5263 6.76444C26.6578 10.2645 27.1761 15.8145 24.759 19.9618Z" fill="white"/>
</svg>
